PathFileType	4	(X/Y/Z)	D:\Temporary Files\修改scale文件\BD0001.trc
DataRate	CameraRate	NumFrames	NumMarkers	Units	OrigDataRate	OrigDataStartFrame	OrigNumFrames
200.000000	200.000000	5	38	mm	200.000000	100	804
Frame#	Time	Top.Head			L.Acromium			R.Acromium			Sternum			L.ASIS			R.ASIS			V.Sacral			R.Knee.Lat			R.Knee.Med			L.Knee.Lat			L.Knee.Med			L.Ankle.Lat			L.Toe.Tip			R.Heel			R.Ankle.Med			R.Ankle.Lat			L.Toe.Med			L.Toe.Lat			L.Heel			L.Ankle.Med			L.Shank1			L.Shank2			R.Toe.Tip			R.Toe.Med			R.Toe.Lat			L.PSIS			R.PSIS			R.iliac.crest			L.iliac.crest			L.Shank3			L.Shank4			R.Shank4			L.Thigh4			R.Thigh4			R.Heel.Lat			R.Heel.Med			L.Heel.Lat			L.Heel.Med			
		X1	Y1	Z1	X2	Y2	Z2	X3	Y3	Z3	X4	Y4	Z4	X5	Y5	Z5	X6	Y6	Z6	X7	Y7	Z7	X8	Y8	Z8	X9	Y9	Z9	X10	Y10	Z10	X11	Y11	Z11	X12	Y12	Z12	X13	Y13	Z13	X14	Y14	Z14	X15	Y15	Z15	X16	Y16	Z16	X17	Y17	Z17	X18	Y18	Z18	X19	Y19	Z19	X20	Y20	Z20	X21	Y21	Z21	X22	Y22	Z22	X23	Y23	Z23	X24	Y24	Z24	X25	Y25	Z25	X26	Y26	Z26	X27	Y27	Z27	X28	Y28	Z28	X29	Y29	Z29	X30	Y30	Z30	X31	Y31	Z31	X32	Y32	Z32	X33	Y33	Z33	X34	Y34	Z34	X35	Y35	Z35	X36	Y36	Z36	X37	Y37	Z37	X38	Y38	Z38	
101	0.5	925.284687998661	1692.96863436901	-993.096747706202	931.918923098486	1410.10211254197	-817.729595449129	1091.74519415692	1399.78109191109	-1090.03588525708	899.72717287977	1359.37374612551	-1019.65992555901	803.807046307358	911.759838126836	-933.19752026457	927.34765503881	931.522061538979	-1134.67995199171	1008.2504755008	964.213922982271	-953.431825994305	1003.19338970261	475.010580779912	-1166.01722838355	948.194668051101	454.746331814184	-1065.9080039713	849.229363264466	475.946585205425	-846.836238232531	885.641962862896	456.710013277892	-950.585705541686	906.943342524464	102.835931332437	-808.719460729886	727.254288186223	56.5101424827171	-868.65700956824	1104.91184846746	34.3249183732373	-1104.19615579654	990.212350104869	103.265954576862	-1115.29419147631	1060.71215635105	104.874799090254	-1173.94267717223	786.887480995345	45.5421909036532	-908.248475377553	793.447657924525	46.3612265744684	-802.825708052141	1001.35177345927	31.480649394832	-814.578443433684	927.043575564566	104.56533203306	-894.647127460721	830.700587093906	388.206245600353	-837.905365407696	828.968983435385	307.548967707522	-819.751653557378	876.114118288737	54.5083946995958	-1277.15475932532	900.01180161784	44.5368381414609	-1205.41230455685	986.474454486023	37.4624952269771	-1275.03800681782	974.654419727119	962.971773525164	-910.984025109445	1029.64186899107	964.73476334792	-999.538728114943	970.109461154528	988.844116939279	-1123.05694324207	833.729747054776	989.171574931229	-901.075157310443	882.997590439135	395.95134994976	-801.804494086467	884.961318756539	309.880928147794	-785.287709936427	1062.15920371827	317.359513362542	-1187.59181972067	836.586274221249	604.57989083119	-833.992757383289	1030.9783783404	568.172244259837	-1149.50525984199	1098.29035265093	32.1584942283749	-1172.68838308127	1024.79178173566	25.2953829351399	-1101.01138288795	935.300923275668	22.3215217830143	-780.071042645821	956.486690365879	27.3350482971052	-883.621932163703
102	0.505	925.230770812533	1692.96738983272	-993.061650627605	931.880145739281	1410.10223810284	-817.716849696947	1091.69765461899	1399.7979524412	-1090.03945086502	899.693147568379	1359.36914495403	-1019.64846885069	803.794960870621	911.757245045346	-933.199399597951	927.341270842688	931.523881726378	-1134.68131339858	1008.24448263601	964.212987217622	-953.430881563218	1003.19076594127	475.010951445304	-1166.02116913419	948.189102713007	454.745337804195	-1065.90530028597	849.243648751871	475.944186931377	-846.826728435078	885.643615351154	456.71348489923	-950.589266312478	906.946066017299	102.842576358961	-808.712597278859	727.279306535514	56.5229732218327	-868.633086911289	1104.91036664831	34.3207024258263	-1104.1959358273	990.21174497318	103.261946438729	-1115.29188252456	1060.70382303974	104.877539549826	-1173.94833196767	786.876042345894	45.5011602214185	-908.221849463971	793.447288026475	46.3565610180819	-802.824370178989	1001.35134051038	31.4798071742678	-814.580818378023	927.046545164659	104.562566230466	-894.644746763393	830.70924889348	388.205600870843	-837.900288343154	828.971656931872	307.547246205176	-819.752015540057	876.114075088559	54.5059712091146	-1277.15604111029	900.011387592286	44.5332155815557	-1205.41402063227	986.473759053008	37.4574760494944	-1275.03767388533	974.645009759204	962.962987881492	-910.987084778393	1029.63544850724	964.733287440131	-999.540595779711	970.105411013496	988.844939979883	-1123.05753329794	833.719983726345	989.161982519933	-901.074063036096	883.000759618746	395.947952070054	-801.809480981888	884.960404010204	309.882330094153	-785.289406358474	1062.15761426287	317.369647014436	-1187.59307708062	836.587797226878	604.575306614424	-834.000924281822	1030.97629965252	568.171844188697	-1149.49252629586	1098.2917982914	32.1625776317745	-1172.68905925358	1024.79195705607	25.2926633989675	-1101.00888409914	935.302523669124	22.3168681106596	-780.072275730732	956.488700122784	27.3309444188188	-883.618784534187
103	0.51	925.175638522226	1692.9665336631	-993.02939396325	931.844849026265	1410.1029641729	-817.70312985077	1091.65272492794	1399.81620514309	-1090.04275494999	899.660357401159	1359.36481061889	-1019.63580367102	803.783998515106	911.753990681081	-933.201633616203	927.33489222378	931.526277055758	-1134.68387171433	1008.23666611204	964.214427001865	-953.430850036276	1003.18802590021	475.012258090031	-1166.02514082602	948.183871539271	454.746503973615	-1065.90175535003	849.254974882667	475.941221520968	-846.818138247745	885.644777920373	456.716430609539	-950.592801471196	906.951927411338	102.854627807246	-808.701846187257	727.304456113345	56.5351974133674	-868.610006616189	1104.90871395647	34.3188584810791	-1104.19610307444	990.21208758095	103.255218534423	-1115.28732114502	1060.69941905675	104.887089733975	-1173.95240719821	786.86049255688	45.4620031014388	-908.200978514614	793.446494899267	46.3526823156605	-802.822714604508	1001.35041526793	31.48176990418	-814.583182803923	927.049451551615	104.560783684499	-894.643315191546	830.716088350115	388.205730690932	-837.894626464255	828.972868494601	307.546038350023	-819.752530048769	876.110723629584	54.5045667148593	-1277.15988545279	900.010218587534	44.529795196057	-1205.41510810849	986.47302437138	37.4526709485467	-1275.03698915107	974.635722306547	962.957578203899	-910.98981695817	1029.62587352493	964.730528908305	-999.542100981209	970.099676079872	988.847224105338	-1123.06030166938	833.710561201324	989.153938401312	-901.074449798889	883.002464233475	395.945211302264	-801.813192747225	884.957980898784	309.884032096473	-785.290719331053	1062.15545369766	317.377496092112	-1187.59291703843	836.59108406353	604.564803280325	-834.011811918361	1030.97278586993	568.170669756071	-1149.48023634657	1098.2913195311	32.1692036556877	-1172.69104435218	1024.79300595508	25.2909511131083	-1101.00640429485	935.304323689053	22.3130847420456	-780.07393487872	956.490606936663	27.3222972443794	-883.613951549616
104	0.515	925.118988955566	1692.96568684633	-992.999230016414	931.813934187848	1410.10418824688	-817.688761624847	1091.61063505004	1399.8345909532	-1090.04485946812	899.628603368494	1359.36140663575	-1019.62219208283	803.774685570995	911.750309775568	-933.204960447174	927.328113905777	931.529271366598	-1134.68692738185	1008.22828702915	964.218709249576	-953.431337354753	1003.18547377576	475.014289531863	-1166.02854235049	948.179173555059	454.749197398967	-1065.89772873699	849.262025373445	475.938526084052	-846.810562259748	885.645793071357	456.717040819019	-950.595712833466	906.961473946368	102.871223705868	-808.689082474595	727.329436849033	56.5464777220938	-868.589446603203	1104.90688893908	34.3191915483959	-1104.19669612211	990.212634864008	103.246477092372	-1115.28248264435	1060.6985176221	104.90066563498	-1173.95427214962	786.844043178615	45.4262453519877	-908.184228838985	793.445554416838	46.3499041339596	-802.821587549063	1001.34943478887	31.4862427344336	-814.584950274869	927.052082985072	104.558939660389	-894.643487447865	830.720813890749	388.206413610914	-837.889190251984	828.972592241186	307.544295629239	-819.753371422051	876.103941741163	54.5052077286644	-1277.16706318861	900.008156605817	44.5265790278478	-1205.41570038054	986.472674625695	37.4486569612527	-1275.03626314627	974.626781139071	962.955898625981	-910.9925252025	1029.61431579203	964.727553997272	-999.54292071316	970.092630453115	988.849315350368	-1123.06424517871	833.701782801343	989.147604924093	-901.076668594534	883.002170885271	395.943329236051	-801.81558230884	884.954399993713	309.885651316843	-785.291563138158	1062.15259373706	317.382605790829	-1187.59231961231	836.600704934133	604.542759939299	-834.029082797136	1030.9683249917	568.16890062927	-1149.46889533868	1098.28956067197	32.1760822554302	-1172.69405347624	1024.79493305353	25.2898982024332	-1101.00492298184	935.305657328336	22.3093197174404	-780.076151768108	956.491675502511	27.3094128038579	-883.608244766872
105	0.52	925.060445089285	1692.96492828297	-992.970535871573	931.786808503018	1410.10572348187	-817.674218759021	1091.57122281721	1399.85227868419	-1090.04481611129	899.597611236357	1359.35938203025	-1019.6078839217	803.767000601084	911.746546729882	-933.209701179664	927.319995086154	931.532496933746	-1134.68975913768	1008.22071224452	964.22577767058	-953.431828515502	1003.18324280197	475.016091605354	-1166.03082328635	948.175207466187	454.752448546944	-1065.89404498409	849.264998594397	475.936680509218	-846.803478966422	885.64700134422	456.714774577779	-950.59726102172	906.972050775165	102.887245124289	-808.678351107761	727.353675753152	56.5575247070814	-868.572616426328	1104.90508106288	34.3207227542303	-1104.19776572537	990.212927731243	103.237472445623	-1115.27919815268	1060.6975239639	104.912038957212	-1173.9563693696	786.829493794861	45.3948692971672	-908.170574501638	793.444785976127	46.3483023005969	-802.821513188856	1001.34858001119	31.4919766699295	-814.585633894444	927.054227097335	104.555668373473	-894.645393171482	830.724303290028	388.206877990928	-837.884460208231	828.970736961957	307.54194786484	-819.754475016749	876.093921675291	54.5089667240552	-1277.17783025662	900.005385391589	44.5233814305063	-1205.41599805869	986.472855777884	37.4455538235102	-1275.03556561609	974.618487186423	962.957805835298	-910.994772993481	1029.60183815046	964.725788314811	-999.542976482565	970.083632062938	988.850340982275	-1123.06828758763	833.693615435063	989.142766710773	-901.080795474883	882.999959526848	395.94247560617	-801.816862183035	884.949962545885	309.886704027424	-785.291736505417	1062.14916555565	317.384839848927	-1187.59245890602	836.622738535799	604.501795806722	-834.057702968713	1030.9637646362	568.166517231661	-1149.45873332948	1098.28751477626	32.1807491101753	-1172.69746505475	1024.79767844323	25.2890783884228	-1101.00475941735	935.307041789822	22.3050877232124	-780.078826950817	956.491457885147	27.2947034867123	-883.603132872805
